<?xml version="1.0" encoding="utf-8"?>
<!-- Generator: Adobe Illustrator 22.0.0, SVG Export Plug-In . SVG Version: 6.00 Build 0)  -->
<svg version="1.1" id="图层_1" xmlns="http://www.w3.org/2000/svg" xmlns:xlink="http://www.w3.org/1999/xlink" x="0px" y="0px"
	 viewBox="0 0 119.7 184.5" style="enable-background:new 0 0 119.7 184.5;" xml:space="preserve">
<style type="text/css">
	.st0{clip-path:url(#SVGID_2_);}
	.st1{fill-rule:evenodd;clip-rule:evenodd;fill:#00A0E9;stroke:#00A0E9;stroke-miterlimit:2.6131;}
	.st2{fill:none;stroke:#00A0E9;stroke-miterlimit:2.6131;}
	.st3{fill:none;stroke:#000000;stroke-width:0.5669;stroke-miterlimit:2.6131;}
	.st4{fill:none;stroke:#000000;stroke-width:0.5669;stroke-miterlimit:2.6131;stroke-dasharray:3.9685,1.1339;}
	.st5{fill:none;stroke:#00A0E9;stroke-width:2;stroke-miterlimit:2.6131;}
	.st6{fill-rule:evenodd;clip-rule:evenodd;fill:#E60012;}
	.st7{fill-rule:evenodd;clip-rule:evenodd;}
</style>
<g>
	<defs>
		<rect id="SVGID_1_" x="0.5" y="0.5" width="118.7" height="183.5"/>
	</defs>
	<clipPath id="SVGID_2_">
		<use xlink:href="#SVGID_1_"  style="overflow:visible;"/>
	</clipPath>
	<g class="st0">
		<path class="st1" d="M43.1,172c-0.2,0.1-0.5,0.4-0.2,0.5c0.3,0,0.5,0,0.5-0.1C43.4,172.2,43.3,171.9,43.1,172L43.1,172z"/>
		<path class="st1" d="M46.4,159.6c-0.2,0.1-0.5,0.4-0.2,0.5c0.3,0,0.5,0,0.5-0.1C46.7,159.9,46.6,159.6,46.4,159.6L46.4,159.6z"/>
		<path class="st1" d="M50.6,152.3c-0.2,0.1-0.5,0.4-0.2,0.5c0.3,0,0.5,0,0.5-0.1C50.9,152.5,50.8,152.2,50.6,152.3L50.6,152.3z"/>
		<path class="st1" d="M57.8,142.5c-0.2,0.1-0.5,0.4-0.2,0.5c0.3,0,0.5,0,0.5-0.1C58.1,142.7,58,142.4,57.8,142.5L57.8,142.5z"/>
		<path class="st1" d="M45.2,134.1c-0.2,0.1-0.5,0.4-0.2,0.5c0.3,0,0.5,0,0.5-0.1C45.5,134.3,45.4,134,45.2,134.1L45.2,134.1z"/>
		<path class="st1" d="M57,126.2c-0.2,0.1-0.5,0.4-0.2,0.5c0.3,0,0.5,0,0.5-0.1C57.4,126.4,57.3,126.1,57,126.2L57,126.2z"/>
		<path class="st1" d="M74.7,125c-0.2,0.1-0.5,0.4-0.2,0.5c0.3,0,0.5,0,0.5-0.1C75.1,125.2,75,125,74.7,125L74.7,125z"/>
		<path class="st1" d="M55.5,134.5c-0.2,0.1-0.5,0.4-0.2,0.5c0.3,0,0.5,0,0.5-0.1C55.8,134.7,55.8,134.4,55.5,134.5L55.5,134.5z"/>
		<path class="st1" d="M57.8,122.2c-0.2,0.1-0.5,0.4-0.2,0.5c0.3,0,0.5,0,0.5-0.1C58.1,122.4,58,122.1,57.8,122.2L57.8,122.2z"/>
		<path class="st1" d="M56.4,117c-0.2,0.1-0.5,0.4-0.2,0.5c0.3,0,0.5,0,0.5-0.1C56.7,117.2,56.6,116.9,56.4,117L56.4,117z"/>
		<path class="st1" d="M57.4,113.8c-0.2,0.1-0.5,0.4-0.2,0.5c0.3,0,0.5,0,0.5-0.1C57.7,114,57.6,113.7,57.4,113.8L57.4,113.8z"/>
		<path class="st1" d="M63,117c-0.2,0.1-0.5,0.4-0.2,0.5c0.3,0,0.5,0,0.5-0.1C63.3,117.2,63.2,116.9,63,117L63,117z"/>
		<path class="st1" d="M81,83.4c-0.2,0.1-0.5,0.4-0.2,0.5c0.3,0,0.5,0,0.5-0.1C81.4,83.6,81.3,83.4,81,83.4L81,83.4z"/>
		<path class="st1" d="M40.1,73.5c-0.2,0.1-0.5,0.4-0.2,0.5c0.3,0,0.5,0,0.5-0.1C40.4,73.8,40.3,73.5,40.1,73.5L40.1,73.5z"/>
		<path class="st1" d="M43.2,76.4c-0.2,0.1-0.5,0.4-0.2,0.5c0.3,0,0.5,0,0.5-0.1C43.6,76.7,43.5,76.4,43.2,76.4L43.2,76.4z"/>
		<path class="st1" d="M35.4,77.2c-0.2,0.1-0.5,0.4-0.2,0.5c0.3,0,0.5,0,0.5-0.1C35.7,77.4,35.6,77.1,35.4,77.2L35.4,77.2z"/>
		<path class="st1" d="M42.2,80.7c-0.2,0.1-0.5,0.4-0.2,0.5c0.3,0,0.5,0,0.5-0.1C42.5,80.9,42.4,80.6,42.2,80.7L42.2,80.7z"/>
		<path class="st1" d="M32.7,83.4c-0.2,0.1-0.5,0.4-0.2,0.5c0.3,0,0.5,0,0.5-0.1C33.1,83.6,33,83.3,32.7,83.4L32.7,83.4z"/>
		<path class="st1" d="M51.3,83.8c-0.2,0.1-0.5,0.4-0.2,0.5c0.3,0,0.5,0,0.5-0.1C51.6,84,51.5,83.7,51.3,83.8L51.3,83.8z"/>
		<path class="st1" d="M56.2,82.9C56,83,55.7,83.4,56,83.4c0.3,0,0.5,0,0.5-0.1C56.6,83.2,56.5,82.9,56.2,82.9L56.2,82.9z"/>
		<path class="st1" d="M58.7,79.2c-0.2,0.1-0.5,0.4-0.2,0.5c0.3,0,0.5,0,0.5-0.1C59,79.5,58.9,79.2,58.7,79.2L58.7,79.2z"/>
		<path class="st1" d="M54.6,80.1c-0.2,0.1-0.5,0.4-0.2,0.5c0.3,0,0.5,0,0.5-0.1C54.9,80.3,54.8,80,54.6,80.1L54.6,80.1z"/>
		<path class="st1" d="M34.4,73.3c-0.2,0.1-0.5,0.4-0.2,0.5c0.3,0,0.5,0,0.5-0.1C34.7,73.5,34.6,73.2,34.4,73.3L34.4,73.3z"/>
		<path class="st1" d="M70.3,43.1c-0.2,0.1-0.5,0.4-0.2,0.5c0.3,0,0.5,0,0.5-0.1C70.6,43.4,70.5,43.1,70.3,43.1L70.3,43.1z"/>
		<path class="st1" d="M53.6,147.8c-0.2,0.1-0.5,0.4-0.2,0.5c0.3,0,0.5,0,0.5-0.1C53.9,148,53.8,147.7,53.6,147.8L53.6,147.8z"/>
		<path class="st2" d="M8.4,40.8c0,0,1.1,0.3,1.6-0.4c0.5-0.7,0.5-0.9,1-0.7c0.5,0.2,1,0.2,1-0.2c0-0.5-0.4-0.5-0.5-1
			c-0.2-0.5,0-0.8,0.3-0.9c0.3-0.1,0.4,0,0.6,0.7c0.3,0.7,0.4,1.1,1,1.3c0.6,0.2,0.7,0.2,1.4,0.4c0.7,0.2,1.1,0.2,0.9,0.6
			c-0.3,0.5-0.3,0.8,0.4,0.8c0.6,0,1.3-0.1,1.9-0.3c0.5-0.2,0.8-0.2,0.7-0.8c-0.1-0.5-0.1-0.9,0.2-0.9c0.4,0,0.5,0.3,0.8,0.8
			c0.4,0.5,0.4,0.6,1.1,0.7c0.8,0.1,1,0.3,0.2,0.6c-0.8,0.4-1,0.4-1,1.4c0,1,0,1.9,0.1,2.5c0.1,0.6,0.4,0.7,0.7,0.7
			c0.4,0,0.3,0.2,0.1,0.6c-0.2,0.4-0.3,0.8,0.4,1.1c0.7,0.3,1.1,0.3,1,1.1c-0.1,0.8-0.1,1.2,0.6,1c0.8-0.3,0.9-0.4,1.5-0.3
			c0.6,0.1,0.9-0.1,1.4-0.8c0.5-0.8,0.5-0.8,0-1.2c-0.4-0.3-0.5-0.3-0.6-1c0-0.7-0.1-1.3-0.8-1.2c-0.7,0.1-1,0-0.9-0.4
			c0.1-0.4,0.1-0.6-0.1-1.1c-0.3-0.4-0.3-0.7,0.2-0.7s0.4,0.3,0.6,0.8c0.2,0.5,0.4,0.4,0.9,0.4s1.2,0,0.6-0.5
			c-0.6-0.5-0.7-0.4-0.9-1.2c-0.2-0.7,0-1.5,0.4-0.9c0.4,0.7,0.9,1.3,1.6,0.4c0.7-1,0.5-1.3,1.4-1.3c0.9,0,1.6,0,2.6-0.4
			c1-0.3,1.5-0.4,2.3-0.8s1.2-0.4,1.7-0.5c0.5-0.1,0.9,0,1.2-0.7s0.4-0.9,1.4-0.8c1,0.1,1.5,0,2.4-0.6c0.9-0.6,1.3-1.1,1.7-1.2
			c0.4-0.1,0.4-0.1,0.5,0.5c0.1,0.6,0.5,0.3,0.9,0.1c0.4-0.2,0.6-0.2,0.3-0.8c-0.3-0.6-0.3-0.6,0-1.3s0.7-0.7,0.8,0
			c0.1,0.7,0.6,0.9,1,0.4c0.3-0.5,0.8-0.6,1.1-0.2c0.4,0.4,0.8-0.1,0.9-0.8c0.1-0.7,0-1.1-0.1-1.7c-0.1-0.6-0.3-1.4,0-1.6
			c0.3-0.2-0.1-0.7-0.5-1.4c-0.4-0.7-0.8-1-0.6-1.4c0.2-0.4,0.6-0.1,0.9,0.5c0.3,0.6,1,1.3,1.3,2.1c0.4,0.7,0.5,1,1,0.9
			c0.5-0.1,1.3-0.2,0.7,0.4c-0.6,0.5-0.8,0.9-0.1,0.9c0.6,0,0.7-0.2,1.4,0.3c0.7,0.4,1.3,0.3,1.1-0.6c-0.2-0.9-0.4-1.3-0.1-1.5
			c0.4-0.2,0.6-0.3,0.9,0.3c0.3,0.5,0.6,0.4,1,0.1s0.2-0.6,0-1.1c-0.3-0.4-0.3-0.6,0.4-0.9c0.7-0.3,1.1-0.4,0.9,0.3
			c-0.1,0.7,0,0.9,0.7,0.7c0.7-0.2,1-0.7,1.6-1.4c0.6-0.7,1.4-1.5,1.2-0.7c-0.2,0.8-0.4,1,0.4,1.2c0.8,0.2,1.9,0.1,1.5-0.5
			c-0.4-0.6-0.5-1.1,0-1.1s0.9,0.2,1.4,0.4c0.5,0.2,1.2,0.1,2.3-0.5c1.1-0.6,2.7-1.1,3.1-2s0.4-1.2-0.1-1.6c-0.4-0.3-0.6-0.9,0-0.9
			c0.6,0,1.2,0.2,1.4-0.7c0.2-0.9,0-1,0.6-1.1c0.5-0.2,1.2,0.1,1.9,0.2c0.8,0,1.1-0.1,1.5-0.4c0.4-0.4,0.3-0.5,0-1.2
			c-0.3-0.7-0.6-1.2-0.3-1.4c0.3-0.2,0.7-0.3,0.8,0.5c0.2,0.8,0.3,0.8,0.6,0.1c0.4-0.6,1-1.3,1.5-2c0.5-0.7,0.6-0.9,1.3-1.3
			c0.7-0.4,0.6-1.1-0.4-1.2c-0.9-0.1-1.6-0.1-1.5-0.5s0.5-0.3,1.2-0.1c0.7,0.2,1.1,0.4,1.4-0.3c0.4-0.7,0.8-1.3,1.8-0.9
			c0.9,0.4,1.3,0.2,1.8-0.6s0.6-0.9-0.2-1c-0.9-0.2-1-0.7-0.1-0.8c0.9-0.1,1.5,0.1,1.8-0.5c0.3-0.7,0.2-0.5-0.2-1
			c-0.4-0.4-0.6-0.8-0.6-1.2c0-0.4,0.6-1,0.8-0.2c0.2,0.8,0.3,1,1.1,0.6c0.7-0.4,0.9-0.3,1.1-0.6c0.2-0.3-0.2-0.4-0.7-0.7
			c-0.5-0.3-0.6-0.6-0.3-1.1C84,4.9,84.2,4.5,85,5.3c0.8,0.7,0.9,0.9,1.3,1c0.4,0.1,0.6-0.4,0.1-1.1s-0.8-0.8-0.4-1.3s0.4-0.4,0.4-1
			S86.1,2,86.4,1.6c0.3-0.4,0.4-1.1-0.4-0.7s-1.3,0.2-0.8-0.5c0.5-0.7,1-1.2,1.7-1.4s1-0.5,0.6-0.8c-0.3-0.3-0.6-0.2-0.8-0.8
			c-0.3-0.6-0.3-0.9-0.9-0.9c-0.6,0-1.2-0.9-0.8-0.9c0.4-0.1,0.6,0.3,0.9-0.4s0.6-0.5,0.6,0.1S87-4,87.2-4.5
			c0.2-0.5,0.7-0.7,0.8-0.2s0.1,0.7-0.4,1s-0.6,0.4-0.2,0.5c0.4,0.2,1.1-0.1,1.4-0.8c0.3-0.6,0.3-1-0.1-1.2C88.2-5.4,88-5.5,88.7-6
			s1.3-1.1,1.5-1.5c0.2-0.4,0-0.6-0.7-0.8c-0.8-0.2-1-0.6-0.5-0.7c0.5-0.1,0.9,0.1,1.4,0.4c0.4,0.3,0.6,0.1,0.8-0.6
			c0.2-0.7,0.5-1.8,0.5-2.5c0-0.7,0.2-1.1,0.4-1.6c0.2-0.5,0.3-0.7-0.2-1c-0.4-0.3-0.8-0.8,0-0.8s1.3,0.1,1.6-0.9
			c0.3-0.9,0.2-1.1,0.2-1.5c0-0.4,0.4-0.9,0.9-0.1c0.4,0.8,0.8,1.2,1,0.6c0.2-0.5,0.2-1,0.8-0.7c0.6,0.3,1.1-0.5,0.3-1.4
			c-0.9-0.9-1.6-1.4-1-1.6c0.6-0.2,1.1-0.3,1.2-1.2c0.1-0.8-0.2-1-0.4-1.4c-0.2-0.4-0.4-0.4-0.9-0.3c-0.5,0.1-0.7-0.1-0.6-0.5
			s0.3-1.1,0.7-0.7c0.4,0.4,0.8,0.6,1-0.1c0.2-0.7,0.4-1.2,0.6-0.4c0.3,0.7,0.9,0.7,0.9-0.2c-0.1-0.9-0.2-1.5-0.3-2s-0.6-1-1-0.2
			c-0.4,0.8-0.2,0.9-1.3,1.3c-1.1,0.4-1.2-0.1-0.7-0.4c0.5-0.3,0.8-0.4,1.2-0.9c0.4-0.5,0.7-1.1,1.5-1.5c0.8-0.5,1.3-1,0.7-1
			c-0.7,0-2.4,0.3-3.5-0.6c-1.1-0.9-1.6-2-2.7-1.2c-1.1,0.8-1.2,0.9-2,1.3c-0.8,0.4-0.9,0.8-1.4,0c-0.5-0.8-0.4-1.3-1.5-0.5
			c-1.1,0.8-1.6,0.7-1.4,0.3c0.2-0.4,1.1-1.2,2-1.3c1,0,1.7,0,2.1-0.7c0.4-0.6,1.1-1.3,2-2.2c0.9-0.9,1.7-1.3,2.6-1.4
			s1.1-0.8,1.1-1.2s-0.9-1.6-2.4-2.3c-1.5-0.8-1.5-0.8-2.8-1.5c-1.2-0.8-2.1-0.7-2.8-1.4c-0.7-0.7-0.9-1.3-2-0.7
			c-1.1,0.6-1.8,0.6-1.5,0.3c0.3-0.4,1.1-1.2,2-1.3c0.9-0.1,1,0.1,1.7,0.9c0.7,0.8,0.9,1.1,1.5,0.5c0.5-0.6,1.2-0.9,2.7-0.3
			c1.5,0.6,1.8,0.5,2.2,0.5c0.4-0.1,0.5-0.4,0.3-0.8c-0.2-0.4-0.5-0.8-2.1-1.5c-1.6-0.6-2.3-0.8-2.1-1.2c0.2-0.5,0.3-0.8-0.7-1.2
			s-1.3-0.3-1.9-1.2c-0.7-0.9-0.7-0.7-0.7-1.3s-0.1-1.3-1.2-2.5c-1.1-1.2-1.1-1.2-1.4-2.1c-0.3-0.8-1.3-3.5-1.9-4.5
			c-0.6-1-0.9-1.5-2.7-2s-2.3-0.4-3-0.9c-0.7-0.4-0.8-0.9-1.7-0.8c-0.9,0.1-0.8-0.2-0.8-0.8c0-0.6,0-1.2,0.4-1.4
			c0.5-0.3,0.6-0.5,0.6-0.9c0-0.4-0.2-0.6,0.1-1.1c0.3-0.5,0.3-0.6,0.4-1.2c0.1-0.6,0.2-1,0.6-1.2c0.5-0.2,1.1-0.3,1.9-1.3
			c0.7-1,0.8-1.1,1-1.4c0.2-0.4,0.7-0.6-0.2-1.1c-0.8-0.5-0.9-0.7-0.5-1c0.4-0.3,0.8-0.1,1.1,0.4c0.2,0.5,0.4,0.9,1.1,0.4
			s1-0.6,1-1.2s0-1,0-1.3s0.4-0.7,0.5-0.3c0.1,0.4,0.4,0.4,0.8,0c0.4-0.4,0.3-0.7-0.4-0.8c-0.7-0.1-1.1-0.8-0.5-0.8s0.5,0.7,2.1-0.4
			c1.6-1.1,2.2-1.5,3-2.2c0.8-0.7,1-1.1,1.5-1.3c0.4-0.2,0.7-0.2,0.9,0.4c0.2,0.6,0.5,0.6,1.1,0.4c0.6-0.2,0.7-0.4,0.8-0.7
			c0.1-0.4,0.2-0.6-0.3-0.7c-0.5-0.2-0.3-0.3,0.1-0.6s0.4-0.6,0.1-1c-0.2-0.4,0-0.5,0.2-0.7c0.3-0.2,0.2-0.5-0.3-0.5s-0.4,0-1,0.2
			c-0.6,0.2-0.7,0.4-1.2,0c-0.5-0.4-1-0.6-1.3-0.2c-0.3,0.4-0.7,0.5-1.7,0.7c-1,0.2-1.3,0.5-1.5,0c-0.2-0.4,0.4-1-0.7-1.1
			c-1.1-0.1-1,0.2-2-0.3c-1-0.4-1.1-0.6-2.7,0.1c-1.6,0.7-1.4,0.9-1.6,1.5c-0.3,0.6-0.3,0.8-1.1,1.2c-0.8,0.4-1.1,0.6-1,1
			c0,0.4-0.4,1.6-1.5,1.6s-1.2,0-1.9,0.2c-0.7,0.1-0.7,0.2-1-0.2c-0.3-0.4-0.7-0.4-1.1-0.7c-0.5-0.3-0.7-0.2-0.4-1.2
			c0.2-1,0.4-2-0.1-3.2c-0.5-1.2-0.4-1.1-0.8-1.4s-0.4-0.3-0.8,0.3c-0.5,0.6-1,1.2-1.2,0.6c-0.2-0.7-0.7-1-1.5-0.1
			c-0.8,0.8-1.2,1.2-1.4,0.6c-0.2-0.6-0.4-0.9-1.3-1.7c-1-0.8-1.4-1.3-1.7-3c-0.3-1.7,0.1-2.9,0.5-3.6c0.4-0.6,1.1-0.9,1.6-0.4
			c0.6,0.5,1.2,1,1.9,0.4c0.7-0.5,0.8-0.7,1.4-0.6c0.6,0.1,1.8-0.2,2.6-1.2c0.9-1.1,0.9-1,0.7-1.8c-0.2-0.9,0.4-2.2,1.6-2.9
			c1.2-0.7,1.6-0.9,2.6-1.7c1-0.8,1.3-1,1.6-1.1c0.3-0.1,0.4-0.4,0.7-1.3c0.3-1,0.6-1.9,1.2-2.4s0.8-0.7,0.7-1.2
			c-0.1-0.5,0.5-1.4,1.6-1.5c1.1,0,2.2,0.2,2.3-0.6s0.3-0.8,0.6-0.7c0.4,0.1,0.4,0.1,0.6,1c0.2,0.9,0,0.6,0.9,1.4
			c0.9,0.8,0.9,0.9,1.4,1.2c0.4,0.3,0.7,0.5,0.3,0.7c-0.4,0.2-0.6,0.3-0.8,1.2c-0.2,1-0.3,1.1-1,1.8s-0.6,0.5-1.2,1.2
			c-0.7,0.6-1.1,0.8-0.9,1.2s0.4,0.5-0.2,0.9c-0.5,0.4-0.6,0.6-0.5,1c0,0.4,0.6,0.8,1.3,0.8c0.7,0,0.9-0.1,1.7-0.4
			c0.8-0.3,0.9,0.1,0.3,0.5c-0.6,0.4-1.2,0.7-1,1.2c0.2,0.4,0.1,1.1-1,1.5c-1,0.5-1.8,0.7-1.7,1.2c0.1,0.6,0.4,1.2,0.8,0.8
			s0.3-0.5,1.5-0.8c1.2-0.3,1.4-0.6,1.1-0.9c-0.3-0.3-0.1-1.1,0.4-0.7c0.4,0.4,0.9,0.3,1.4-0.6c0.5-1,0.6-1.1,0.8-1.7
			c0.2-0.7-0.1-0.7,0.7-1.2c0.8-0.4,1.1-0.6,1.5-1.2c0.4-0.5,0.4-0.6,1.5-1c1.1-0.4,1.4-0.5,1.3-1c-0.1-0.5,0.1-0.7,0.6-0.5
			c0.5,0.2,0.7,0.3,1.5-0.3c0.8-0.5,1-0.6,2-0.8s1.1-0.1,1.6-0.8 M28,54.4c-0.5-0.2-0.3,0.4-0.1,0.8c0.2,0.5,0.2,0.8-0.2,1.3
			c-0.3,0.4-0.5,0.7-0.8,1.6c-0.4,0.9-0.5,2.1-0.4,2.9c0.1,0.8-0.8,1.1-1.5,1.3c-0.8,0.2-0.9,0.6-1.4,1.5c-0.5,0.8-1,0.5-1.7,0.5
			c-0.7,0-1,0.7-1.5,1.3c-0.4,0.6-1.4,0.6-1.5-0.1c-0.1-0.8-0.2-0.5-1.3-0.4c-1.1,0-1.6-0.2-2.7-0.7c-1.1-0.5-1.4-1-1.5-1.7
			c-0.1-0.7-0.1-0.8-0.3-1.5c-0.2-0.7-0.3-1.5-0.2-2.8s0.7-1.4,1.3-1.8c0.6-0.4,1.3-0.8,1.3-0.8s0.9-0.7,1.6-1
			c0.7-0.3,0.7-0.4,0.3-0.7c-0.4-0.3-0.2-0.7,0-0.9c0.2-0.2,0.2-0.6,1-0.2c0.8,0.3,0.9,0.2,1.1-0.3c0.2-0.5,0.5-0.8,1.6-0.6
			c1,0.1,1.1,0.6,2,0.1c0.9-0.5,1.1-0.7,1.8-0.6c0.7,0.1,0.6,0.1,1,0.3c0.5,0.1,0.9,0.3,0.9-0.2c0.1-0.5,0.4-0.9,0.9-0.5
			c0.5,0.4,0.5,0.4,1.2,0.8c0.7,0.4,0.9,0.5,0.9,1c0,0.5-0.1,0.6,0,0.9c0.1,0.3,0.4,0.7,0,1c-0.4,0.3-1.2,0.8-1,0.3
			c0.2-0.5,0.1-0.6-0.1-0.6C28.3,54.3,28,54.4,28,54.4L28,54.4z M94.2,11.8c-0.2,0.5-0.8,2-1.3,2.9c-0.5,0.9-0.9,2.1-1.1,2.9
			s-0.6,1.1-0.2,1.8s0.3,0.8,0.2,1.5c-0.2,0.7-0.1,1.9,0.5,2.7c0.6,0.8,1,1,1,1.7c0,0.7,0,0.7,0.9,1.2c0.9,0.5,1.4,0.7,1.7,1.1
			c0.3,0.4,0.7,0.6,0.8,1.4c0.1,0.8,0.2,1.2,0.7,1.3c0.4,0.2,0.8,0.1,0.7-0.8c-0.1-0.8-0.3-3.1,0.7-4.7c0.9-1.6,1.1-2.4,1.6-3.3
			s0.8-2.4,0.8-3.9c0-1.5,0.2-2.3,0.2-3.2s0-1.6,0.5-2.6c0.5-1,0.9-1.9,0.5-2.9c-0.5-1-0.7-1.4-0.1-2c0.5-0.6,0.6-1.4-0.3-1.6
			c-0.9-0.2-0.9,0.1-1.3-0.4C100,4.5,99.7,3.9,99,4.9c-0.7,1-0.5,0.9-1.4,1.4c-0.9,0.5-1.3,0.4-1.4,1.4c-0.1,0.9,0.1,0.8-0.6,1.8
			C94.9,10.5,94.3,11.3,94.2,11.8L94.2,11.8z"/>
		<path class="st1" d="M16,43.8c-0.2,0.1-0.4,0.4-0.3,0.6c0.1,0.3,0.2,0.4,0.4,0C16.3,44.1,16.2,43.7,16,43.8L16,43.8z"/>
		<path class="st2" d="M40.2,38.1c-0.2,0.2-0.3,0.3-0.3,0.7c0,0.4,0.1,0.6,0.4,0.4c0.3-0.2,0.3-0.4,0.3-0.7
			C40.5,38.2,40.3,37.9,40.2,38.1L40.2,38.1z M41.6,37.7c-0.2,0.1-0.5,0.2-0.4,0.8c0.1,0.6,0.7,0.6,0.7,0.1
			C42,38,41.8,37.6,41.6,37.7L41.6,37.7z M49.2,33.5c0,0,1.3-0.4,1.1,0c-0.2,0.5-0.2,0.5-0.5,0.5S48.7,34.4,49.2,33.5L49.2,33.5z
			 M87.5,3.7c0.2,0.2,0.6,0.3,0.8,0.9c0.2,0.6,0,1-0.5,0.9c-0.5-0.1-0.5-0.2-0.5-0.6c0-0.4,0.2-0.5-0.1-0.8
			C86.9,3.9,87.3,3.5,87.5,3.7L87.5,3.7z M97.9-33.5c0,0,0.7-0.2,0.8,0c0.1,0.2,0.2,0.4-0.1,0.4S97.7-33.2,97.9-33.5L97.9-33.5z
			 M98.4-34.9c0,0,0.7-0.2,0.8,0c0.1,0.2,0.2,0.4-0.1,0.4S98.2-34.6,98.4-34.9L98.4-34.9z M93.5-40.8c0,0,0-0.3,0.4-0.1
			c0.4,0.2,0.7,0.4,0.6,0.5C94.4-40.4,93.6-40.7,93.5-40.8L93.5-40.8z"/>
		<path class="st1" d="M87.6,19c0,0,0.1-0.3,0.3-0.1c0.2,0.2,0.4,0.3,0.5,0.4c0.1,0.1,0,0.2-0.1,0.3c-0.1,0.1-0.5,0.2-0.6,0
			C87.6,19.4,87.5,19.3,87.6,19L87.6,19z"/>
		<path class="st2" d="M69.8,22.3c0,0,0.2-0.2,0.4-0.2s0.9-0.2,0.8,0.2c-0.1,0.4-0.2,0.4-0.5,0.4C70.3,22.7,69.4,22.7,69.8,22.3
			L69.8,22.3z M78.5,13.6c0,0,0.5,0.1,0.6,0c0.1-0.1,0.4-0.3,0.3,0c0,0.3-0.1,0.8-0.3,0.8C78.9,14.4,78.2,14.1,78.5,13.6L78.5,13.6z
			 M94.4-16.3c0,0,0.2-0.5,0.5,0.1c0.3,0.6,0.4,0.6,0.4,0.8c0,0.2-0.1,0.2-0.3,0.1c-0.2-0.1-0.6,0.1-0.7-0.1
			C94.2-15.6,93.8-16,94.4-16.3L94.4-16.3z M90.1-43c0,0-0.4-0.7,0.5-0.5c0.9,0.2,1.6,0.7,2.3,0.9c0.7,0.3,0.9,0.4,1.3,0.4
			c0.4,0.1,0.9,0.3,0.6,0.5c-0.3,0.2-0.8,0.3-1.4,0c-0.6-0.2-0.8-0.4-1.4-0.5C91.5-42.1,90.2-42.7,90.1-43L90.1-43z M96.8-32.1
			c0,0-0.3-0.3,0.3-0.2c0.6,0.1,1.2,0.3,1.7,0.4c0.5,0.1,0.8,0.2,0.8,0.5c0,0.3,0,0.7-0.4,0.5c-0.4-0.2-0.9-0.2-1.2-0.2
			c-0.3,0.1-0.6,0.1-0.6-0.2c0-0.4,0-0.4-0.2-0.5C96.9-31.9,96.8-32.1,96.8-32.1L96.8-32.1z"/>
		<path class="st1" d="M22.8,146.7c-0.2,0.1-0.5,0.4-0.2,0.5c0.3,0,0.5,0,0.5-0.1C23.1,147,23,146.7,22.8,146.7L22.8,146.7z"/>
		<path class="st1" d="M38.3,144.9c-0.2,0.1-0.5,0.4-0.2,0.5c0.3,0,0.5,0,0.5-0.1C38.6,145.2,38.5,144.9,38.3,144.9L38.3,144.9z"/>
		<path class="st1" d="M37.9,136.3c-0.2,0.1-0.5,0.4-0.2,0.5c0.3,0,0.5,0,0.5-0.1C38.2,136.6,38.1,136.3,37.9,136.3L37.9,136.3z"/>
		<path class="st1" d="M81.3,118.3c-0.2,0.1-0.5,0.4-0.2,0.5c0.3,0,0.5,0,0.5-0.1C81.6,118.5,81.5,118.2,81.3,118.3L81.3,118.3z"/>
		<path class="st1" d="M75,112.8c-0.2,0.1-0.5,0.4-0.2,0.5c0.3,0,0.5,0,0.5-0.1C75.3,113,75.2,112.7,75,112.8L75,112.8z"/>
		<path class="st1" d="M68.4,118.7c-0.2,0.1-0.5,0.4-0.2,0.5c0.3,0,0.5,0,0.5-0.1C68.8,118.9,68.7,118.6,68.4,118.7L68.4,118.7z"/>
		<path class="st1" d="M72.6,116.8c-0.2,0.1-0.5,0.4-0.2,0.5c0.3,0,0.5,0,0.5-0.1C72.9,117,72.8,116.7,72.6,116.8L72.6,116.8z"/>
		<path class="st1" d="M58.1,119.6c-0.2,0.1-0.5,0.4-0.2,0.5c0.3,0,0.5,0,0.5-0.1C58.5,119.8,58.4,119.5,58.1,119.6L58.1,119.6z"/>
		<path class="st1" d="M51.8,123.4c-0.2,0.1-0.5,0.4-0.2,0.5c0.3,0,0.5,0,0.5-0.1C52.1,123.6,52,123.3,51.8,123.4L51.8,123.4z"/>
		<path class="st1" d="M36.5,80.8c-0.2,0.1-0.5,0.4-0.2,0.5c0.3,0,0.5,0,0.5-0.1C36.8,81,36.7,80.7,36.5,80.8L36.5,80.8z"/>
		<path class="st1" d="M63.9,40.7c-0.2,0.1-0.5,0.4-0.2,0.5c0.3,0,0.5,0,0.5-0.1C64.2,40.9,64.1,40.6,63.9,40.7L63.9,40.7z"/>
		<path class="st1" d="M102.5,28.7c-0.2,0.1-0.5,0.4-0.2,0.5c0.3,0,0.5,0,0.5-0.1C102.9,28.9,102.8,28.6,102.5,28.7L102.5,28.7z"/>
		<path class="st1" d="M101.8,24.4c-0.2,0.1-0.4,0.3-0.2,0.3c0.2,0,0.4,0,0.4-0.1C102.1,24.5,102,24.3,101.8,24.4L101.8,24.4z"/>
		<path class="st1" d="M87.1,21.3c-0.2,0.1-0.4,0.3-0.2,0.3c0.2,0,0.4,0,0.4-0.1C87.3,21.4,87.3,21.2,87.1,21.3L87.1,21.3z"/>
		<path class="st1" d="M112-1.2c0.1,0,0.2,0.1,0.2,0.2c0,0.1-0.1,0.2-0.2,0.2c-0.1,0-0.2-0.1-0.2-0.2C111.8-1.1,111.9-1.2,112-1.2
			L112-1.2z"/>
		<path class="st1" d="M119-3.6c0.1,0,0.2,0.1,0.2,0.2c0,0.1-0.1,0.2-0.2,0.2c-0.1,0-0.2-0.1-0.2-0.2C118.8-3.5,118.9-3.6,119-3.6
			L119-3.6z"/>
		<path class="st1" d="M113-2.7c0.1,0,0.2,0.1,0.2,0.2c0,0.1-0.1,0.2-0.2,0.2c-0.1,0-0.2-0.1-0.2-0.2C112.8-2.6,112.9-2.7,113-2.7
			L113-2.7z"/>
		<path class="st1" d="M63.9,42.5c-0.2,0.1-0.5,0.4-0.2,0.5c0.3,0,0.5,0,0.5-0.1C64.2,42.7,64.1,42.4,63.9,42.5L63.9,42.5z"/>
		<path class="st2" d="M-76.3-59.9c0.8,0.1,1.2,0.5,2,1.1c0.9,0.7,0.9,0.8,1.6,1.1c0.6,0.3,2,2,2.4,2.6c0.5,0.5,1.6,3,2.3,3.2
			c0.7,0.2,1,0.2,1,0.4c0,0.1,0.3,0.2,0.5,0.2s0.6,0.1,0.8,0.4c0.1,0.3,0.3,0.4,0.7,0.6c0.4,0.2,0.6,0.4,0.7,0.7
			c0.1,0.3,0.4,1.4,1,1.5c0.6,0.2,0.5,0.3,0.8,0.8"/>
		<path class="st2" d="M-92.4-57.8c1-0.3,2.5-0.4,3,0.2c0.5,0.5,1.3,1.4,2.1,1.1c0.8-0.3,0.4-0.4,0.9-0.5c0.5-0.1,0.5-0.1,1.1,0
			c0.5,0.1,2.9,0.5,3.5-0.1c0.5-0.7,1.4-1.7,2-1.7c0.7,0,1.2,0.1,1.4-0.3c0.2-0.4,1.4-0.6,2.1-0.6"/>
		<path class="st2" d="M-99.2-58c0.4-0.5,0.5-0.9,0.5-1.2c0-0.3,0.2-0.6,0.9-0.4c0.6,0.2,1.4,0.5,2.2,0.6c0.8,0.1,1.4,0.5,1.7,0.9
			c0.3,0.4,0.6,0.5,1.6,0.3"/>
		<path class="st2" d="M-99.9-53.6c0,0,0.4-3.9,0.7-4.4"/>
		<path class="st2" d="M-42.9-1c-0.2,0.7-0.5,2.5-0.6,3c0,0.5,0,1.4,0.1,1.8c0.2,0.5,0.3,0.8,0,1.1c-0.3,0.3-0.8,0.8-0.3,1
			c0.5,0.2,0.9-0.1,1.2,0.2c0.4,0.3,1.6,0.7,2.5,0c0.9-0.7,0.7-1,1.8-1c1.1,0.1,1.3-0.1,1.5-0.6c0.2-0.5-0.2-1.7,1.4-1.1
			c0.3,0.1,0.5,0.2,0.6,0.2c0.9,0.2,1.2,0.8,1.2,0.8 M-51.2-13.5c0.1,0.7,0.2,2.1,0.3,2.7c0.1,0.5,0.1,0.8,0.4,1.2
			c0.3,0.4,0.5,0.9,0.6,1.4c0.1,0.4,0.7,4,1.1,4.7c0.4,0.7,0.3,1.1,0.7,1.4c0.4,0.4,0.9,1.1,1.2,1.7c0.3,0.6,0.6,1.5,1,0.5
			c0.4-1,0.3-1.5,0.7-1.7c0.4-0.2,0.6-1.4,0.7-1.9c0.1-0.5,0.6-2,1-1.5c0.4,0.5,0.3,0.4,0.3,0.9c0,0.5,0,0.6,0.2,1s0.1,1.5,0,2.2"/>
		<path class="st2" d="M-52.1-33.3c0.2,0.3,0.3,1.1,0.1,1.2c-0.3,0.1-0.4-0.1-0.8-0.3c-0.5-0.1-0.5-0.2-0.7,0.2
			c-0.1,0.4,0.2,0.6,0.3,1c0.1,0.4,0.5,0.9,0.6,1.3c0.1,0.4,0.5,1.1,0.6,1.4c0.1,0.3,0.2,1.6,0.3,2c0.1,0.4,0.5,3.8,0.3,4.4
			c-0.2,0.6-0.3,1.6-0.2,2.2c0.1,0.6,0.1,1.5,0.2,2c0.1,0.5,0.2,3.9,0.3,4.6"/>
		<path class="st2" d="M-62.7-47.4c0.3,0.5,1.7,2.4,1.9,2.9c0.2,0.4,0.4,1.7,1.7,2.3c1.3,0.6,3.2,1.7,3.3,2c0.1,0.3,0.5,1.5,0.9,1.8
			c0.3,0.3,0.5,0.8,0.5,1.3c0,0.4,0.5,1.9,1.1,2.5c0.5,0.6,1.1,1.1,1.3,1.4"/>
		<path class="st2" d="M-33.4,4.4c0,0,0.2,1.4-0.2,2c-0.4,0.6-0.5,1.1-0.1,1.5c0.5,0.4,0.8,0.5,1.4-0.3c0.6-0.7,1.4-2,2.5-2.1
			c1.1-0.1,1.2-0.2,1.1,0.2c0,0.5,0.2,0.9,0.7,0.5c0.5-0.4,0.5-0.8,1.1-0.7c0.5,0.1,1,0.1,1-0.3c0-0.4-0.1-0.6,0.1-0.8
			c0.2-0.2,0.2-0.3,0-0.8c-0.2-0.5-0.3-0.8-0.4-1.3c-0.1-0.5-0.3-1-0.2-1.7c0.1-0.7-0.1-1.9-0.1-2.3c-0.1-0.4,0-0.4,0.5-0.6
			c0.5-0.2,1.5-0.7,1.9-1.1c0.4-0.4,1-1.5,1.4-2c0.5-0.4,0.9-0.5,0.5-1.1c-0.4-0.6-0.9-1.6-0.1-1.9c0.8-0.3,0.6-0.3,1-0.3
			c0.4,0.1,1-0.1,1.1-0.5c0.1-0.5,0.1-2,0.6-2c0.5-0.1,2.9,0,3.5-0.2c0.6-0.2,1.7-0.9,1.7-0.9"/>
		<path class="st2" d="M-68-61.8c0,0,1-0.1,1.4,0.1c0.4,0.2,0.4,0.2,0.9,0.2c0.5,0,0.5,0.3,1.1,0.3c0.6,0,0.9-0.1,1.2,0.2
			c0.3,0.3,0.8,0.8,1.5,0.8c0.7,0,0.8,0.2,1,0.3c0.2,0.1,0.4,0.6,0.8,0.9"/>
		<path class="st2" d="M-60.1-59.1c0,0,1,0.4,1.3,0.3c0.3-0.1,0.8-0.2,1-0.7c0.2-0.5,0.2-0.9,0.5-1.2"/>
		<path class="st2" d="M-33-49.1c0.1,0.1,0.3,0.2,0.3,0.3c0.3,0.4,0.6,0.6,0.6,1s-0.1,0.4,0.5,0.6c0.6,0.2,0.2,0.3,0.5,0.5
			c0.3,0.2,0.5,0.2,0.9,0.1c0.3-0.1,0.3-0.4,1-0.3c0.7,0.1,0.5,0,0.5-0.3s0.5-0.9,0-0.9c-0.5-0.1-0.8-0.5-0.8-0.8
			c0-0.3,0.1-0.4-0.2-0.6c-0.3-0.2-0.4-0.5-0.4-0.7c0-0.1-0.5-0.7-1.4-1c-0.9-0.4-1.6-0.6-1.8-0.8c-0.2-0.2-0.4-0.6-1.1-0.8"/>
		<path class="st2" d="M-46.3-50.3c0.4-0.1,1-0.1,1.3,0.1c0.3,0.2,1,1.2,1.6,1.1c0.6-0.1,1-0.1,0.9-0.5c-0.1-0.4,0.1-0.4,0.4-0.4
			c0.3-0.1,1.6-0.8,2-1c0.4-0.2,0.9-0.5,1.1-0.2c0.3,0.3,0.4,1.2,0.8,1.5c0.4,0.3,0.4,0.3,0.4-0.2c0-0.5-0.2-1.1,0.8-0.6
			c1,0.5,0.6,1.3,1.9,1.2c1-0.1,1.7-0.1,2.1,0.1"/>
		<path class="st2" d="M-53.3-56.3c0.2,0.3,1,1.1,1.4,0.8c0.4-0.3,0.1-0.1,1.2-0.1c1.1,0.1,1.2,0.1,1.1,0.8
			c-0.1,0.7,0.1,1.4-0.1,1.7c-0.1,0.3-0.4,1.4,0.1,1.5c0.5,0.2,0.7,0.4,0.7,0.6c0,0.2,0.2,0.8,0.7,0.6c0.5-0.2,0.6-0.4,1-0.2
			c0.4,0.2,0.6,0.3,1,0.3"/>
		<path class="st2" d="M-57.4-60.7c0,0,0.6-0.4,1.2-0.1c0.6,0.4,0.9,1.1,1.2,1.5c0.3,0.3,0.6,0.5,1,0.7c0.4,0.2,0.4,0.3,0.3,0.7
			c-0.1,0.4-0.4,1-0.2,1.2c0.3,0.2,0.4,0.3,0.6,0.5"/>
		<path class="st2" d="M-38.9-66.6c0.3-0.5,0.6-1.2,1.3-1c0.7,0.3,0.6,0.4,1.3,0.4c0.6,0,1-0.2,1.2,0.1c0.2,0.2,0.5,0.2,1.1,0
			c0.6-0.2,2.1-0.7,2.6,0.1c0.5,0.7,0.6,0.8,0.6,1.4c0,0.6,0.1,0.8,0.9,0.5c0.7-0.3,0.7-0.3,1.2-0.2c0.6,0.1,0.9,0.2,1.1,0.4
			c0.3,0.2,0.3,0.3,1.1,0.1c0.9-0.2,0.8-0.2,1.4,0c0.6,0.2,1.2,0.8,1.7,0.4c0.5-0.4,1.2-1,0.6-1c-0.6,0-1.1-0.2-0.4-0.6
			c0.7-0.3,0.9-0.6,1-0.9c0.1-0.3,0.3-0.5,0.6-0.3c0.4,0.2,1.3,0.6,1.5,0.6c0.3,0,0.8,0.3,1.4,0"/>
		<path class="st2" d="M-34.3-52.8c-0.7-0.1-1.3-0.5-1.5-1s-0.6-1.4-1.1-1.6c-0.6-0.2-1.1-0.4-1.1-0.7c0-0.3-0.2-1.1-0.6-0.9
			c-0.4,0.3-0.9,0.3-1.3-0.1c-0.5-0.4-1-0.6-1.3-0.9c-0.2-0.2-0.7-0.3-0.7-0.8c-0.1-0.5-0.2-1.4-0.3-1.7c-0.1-0.3-0.2-0.7,0.1-0.9
			c0.2-0.2,0.3-0.2-0.1-0.7c-0.3-0.5-0.4-0.8-0.1-1.3c0.3-0.5,0.3-1.3,1.6-1.9c1.2-0.6,1.5-1,1.8-1.4"/>
		<path class="st2" d="M-11.1-77c0.8,0,1.9-0.2,2.5-0.4c0.6-0.2,1.1-0.6,1.3-1.4c0.3-0.8,0.9-1.8,0.9-1.8l0.7-0.9 M-18.8-66.5
			c0,0,0.2-0.2,0.4-0.4c0.3-0.4,0.7-0.9,0.8-1c0.2-0.3,0.2-0.7,0.8-0.7c0.6,0,0.3-0.1,0.6-0.4c0.3-0.3,1.8-0.9,1.7-1.4
			c-0.1-0.5-0.3-1.1-0.5-1.4c-0.2-0.3-0.8-0.8-1.3-0.8c-0.5,0-0.7-0.1-0.6-0.5c0.1-0.4,0.1-0.5,0-0.7c-0.1-0.2-0.1-0.4,0.2-0.4
			c0.3,0,0.1-0.3,0.1-0.3s-0.3-0.2,0.4-0.2s0.8-0.2,0.9-0.4c0.1-0.3,0.3-0.3,0.5-0.5c0.2-0.1,1.3-0.6,1.7-0.8c0.4-0.1,1.3-0.9,2-0.8
			 M-5.7-81.4l1.8-3.2 M-4-84.5c0,0,0.2-0.6,0.4-0.9c0.1-0.3,1.3-2.5,1.5-2.8c0.3-0.3,0.4-0.6,0.2-1.2c-0.2-0.6-0.8-2.8-0.6-3.4
			c0.2-0.7,0.3-0.9,0.1-1.2 M-2.3-93.8c0-0.2-0.8-2,0-2.7c0.8-0.7,1.4-1.3,1.9-1.6C0.1-98.4,0-98.3,0-98.7c-0.1-0.3-0.2-1.2,0.4-1.5
			c0.5-0.3,1.6-0.9,1.9-1.1c0.3-0.2,0.8-0.8,1.5-0.8c0.7,0,1.1,0.3,1.3,0.1c0.2-0.2,0.4-0.2,0.7,0c0.4,0.2,2.1,1.2,2.7,1.3"/>
		<path class="st2" d="M23-89.5c0.3-0.4,0.3-1.7,0.2-2.3c-0.1-0.6,0.1-0.5,0.6-0.7c0.5-0.2,0.6-0.5,0.8-1c0.2-0.5,0-0.8-0.3-1.1
			c-0.3-0.3,0.2-1,0.2-1.7 M8.5-100.5c0.7,0.2,1.5,0.5,1.8,0.5c0.4-0.1,0.2,0.1,0.6,0.2c0.5,0.1,1.4,0.4,1.7,0.1
			c0.3-0.3,1.3-0.4,1.6-0.3s0.4,0.3,0.9,0.1c0.4-0.2,1.3-0.1,1.4,0.2c0.2,0.3,0.2,0.8,0.7,0.6c0.5-0.3,0.4-0.4,1.1-0.1
			c0.8,0.3,1.3,1.2,2.4,0.9c1-0.3,1.5-0.6,2,0c0.6,0.6,2,1.6,1.7,2.4"/>
		<path class="st2" d="M20-82.1c0,0,0,0.7,0.4,0.9 M20.4-81.4c0.3,0.3,0.4,0.4,0.3,0.7c0,0.4-0.1,0.6,0.2,0.9c0.3,0.3,1,1.3,0.6,1.6
			c-0.4,0.3-0.5,0.7-0.4,1c0.2,0.3,0.2,0.5,0.1,0.9c-0.2,0.5-0.5,1.3-0.9,1.7c-0.4,0.4-0.7,0.4-0.7,1c0,0.6,0.1,0.4,0.1,0.7
			c0.1,0.4,0.3,0.5,0.3,0.7c-0.1,0.2-0.1,0.4,0.1,0.7c0.2,0.3,0.1,0.4,0.2,1.1 M20-82.1c0-0.1-0.1-0.3-0.1-0.4
			c-0.2-0.7,0.4-1,0.6-1.1s0.5-0.6,0.5-0.9c0-0.3,0.1-0.5,0.6-0.5c0.5,0,0.4-0.7,0.3-1c0-0.3,0-0.5,0.1-0.9c0.1-0.4,0.5-1.1,0.5-1.6
			s0.2-0.5,0.5-0.9"/>
		<path class="st2" d="M20.3-70.3c0.1,0.7,0,2.5,0.4,3.8c0.4,1.3,0.8,2.6,0.7,3.1 M21.4-63.4c0,0-0.7,1.6-0.8,1.9
			C20.4-61,20-59.9,20-59.2c0,0.4-0.1,1-0.1,1.5c0,0.1,0,0.8,0.2,1.2c0.3,0.5,1,0.4,0.9,0.2 M20.7-56.2c0,0,2.9-0.3,3-0.7
			c0.2-0.4,0.3-0.6,0.7-0.8c0.4-0.2,0.7-0.3,0.9-0.5c0.1-0.2,0.1-0.3,0.9-0.3"/>
		<path class="st2" d="M40-60.9c1.1,0.3,1.8,0.7,2.5,0c0.7-0.6,1-0.3,1.5-0.2c0.5,0.2,3.3,0.1,3.2-0.2c-0.1-0.3-0.2-0.6,0.1-0.7
			c0.2-0.1,0.2-0.3,0.1-0.7c-0.1-0.4,0.1-0.9,0.4-1.1c0.3-0.2,0.6-0.9,0.6-1.2c0.1-0.3,0.4-0.4,0.7-0.2c0.3,0.2,0.6,0.3,0.8-0.2
			c0.2-0.4,0.2-0.6,0.1-0.8c-0.1-0.3,0.1-0.3,0.3-0.5"/>
		<path class="st2" d="M26.2-58.4c0.8,0,1.1-0.4,1.7-0.8c0.6-0.4,1.2-1.7,2.1-1.5c0.9,0.3,1.3,0.7,2.4,0.8c1.1,0.1,3.4,0.9,4.1,0.4
			c0.8-0.5,2.3-1.7,3.5-1.4"/>
		<path class="st2" d="M50.2-66.5c0.2-0.2,0.8-1.1,1.1-1.2c0.4-0.1,0.5,0,0.5-0.3c0.1-0.3,0.2-0.7,0.8-0.7c0.6,0,1,0.2,0.6-0.3
			c-0.4-0.4-0.2-0.5,0.2-0.5c0.4,0,0.6-0.1,0.6-0.7c0-0.6,0.3-0.7,0.6-1.1c0.4-0.4,1.7-1.7,1.9-1.9c0.2-0.2,2.2-2.3,2.7-3"/>
		<path class="st2" d="M59.1-76c0,0,0.6-1,0.8-1.6c0.1-0.6-0.1-0.8,0.5-1c0.6-0.3,1.3-0.7,1.5-1.1c0.2-0.5,0.4-0.7,0.7-0.6
			c0.3,0.1,0.9-0.2,1.1-0.4c0.2-0.3,0.9-0.6,1.1-0.7c0.2-0.1,0.6-0.9,0.8-1.2c0.2-0.3,0.5-0.8,0.9-0.9c0.4-0.1,1.2-0.7,1.4-0.9
			c0.3-0.2,1-0.8,1.2-0.8"/>
		<path class="st2" d="M-14.7-12.2c0,0,0.5-0.2,0.9-0.3c0.4,0,1.1-0.2,1.3,0.1c0.2,0.3,0.4,0.5,0.7,0.3c0.3-0.2,0.4-0.2,0.7-0.2
			c0.3,0,0.5,0,0.8-0.2c0.3-0.2,0.9-0.3,1.1-0.6c0.2-0.3,0.2-0.9,0.5-0.8c0.3,0.2,0.3,0.3,0.4,0.5c0.1,0.2,0.2,0,0.7,0.2
			c0.5,0.2,0.8,0.7,0.9,0.3c0.2-0.4-0.5-0.8-0.1-1.2c0.4-0.4,0.2-0.6,0.9-0.6c0.7,0,0.9,0.3,1-0.2c0.1-0.5-0.1-1.2,1-1.4
			c1.1-0.2,1.6-0.2,1.4-0.8c-0.2-0.6,0.2-0.9,0.2-1.1c0-0.2,0.1-0.5,0.5-0.4c0.5,0.1,1.1,0.4,1.4-0.2c0.3-0.5,0.9-1.7,1.3-1.3
			c0.5,0.4,0.8,0.6,0.8,0.6s0.8,0.3,1,0C3-19.7,3-19.8,3-19.8"/>
		<path class="st2" d="M3.1-19.6c0,0,0.3-0.5,0.3-0.8c0-0.2-0.2-0.4,0.3-0.2c0.5,0.1,1,0.5,1.5-0.2c0.5-0.7,1.3-2.7,1.9-2.7
			c0.6,0.1,1.2,0,0.7-0.4c-0.5-0.4-0.9-0.9-0.1-0.9c0.8,0,1.1-0.2,1.4-0.7c0.2-0.5,0.4-1,0.3-1.5c-0.1-0.6-0.2-0.7,0.1-0.7
			c0.2,0,0.8-0.2,0.8-0.2 M9.6-27.9c0,0,1.7-0.5,2-0.8c0.3-0.3,0.4-0.4,0.9-0.4c0.5,0,2,0,3.2-0.3c1.3-0.3,3.1-0.5,3.8-0.5
			c0.8,0,2.2-0.3,2.8-0.2c0.6,0.1,2.1,0.9,3.3,1c1.2,0.1,1.5,0,1.9,0.5c0.3,0.5,0.7,0.7,0.9,1"/>
		<path class="st2" d="M28.4-27.5c0,0,0.9,2.9,1.7,2.3c0.8-0.7,1.1-1.1,1.8-0.7c0.8,0.3,0.8,0.5,1.7,0.6c0.8,0.1,1.1-0.1,0.9,0.5
			c-0.2,0.6,0,0.7,0.4,1.2c0.5,0.5,0.7,0.5,0.6,1.3c-0.2,0.8-0.3,0.8,0.3,0.8c0.7-0.1,0.6-0.2,0.8,0.2c0.2,0.4,0.5,0.5,0.7,0.3
			 M37.3-21.3c0.2-0.2,0.7-0.5,1-0.7c0.3-0.1,0.8-0.1,0.7,0.5c-0.1,0.6-0.4,1.1,0.2,1.4c0.6,0.4,0.9,0.7,1.6-0.3
			c0.8-1,1.9-2.3,2.7-2.6c0.8-0.3,1.4-1.1,1.8-1.4c0.5-0.3,0.9-0.8,0.3-1.1c-0.6-0.4-1.1-0.3-0.8-0.6c0.3-0.3,0.3-0.3,0.7-0.2
			c0.5,0.1,0.5,0.2,0.7-0.4c0.2-0.5,0.9-1.6,0.9-1.6s0.6-0.6,1.7-0.5"/>
		<path class="st2" d="M48.8-28.7c0,0,0.5,0.1,0.9,0c0.4-0.1,0.8-0.4,1.1,0.1c0.2,0.5,0.1,1.1,0.6,1c0.5-0.1,0.8-0.1,1.2,0.6
			c0.4,0.7,0.9,1.2,1.3,1.5 M53.6-25.8c0,0,2,2.2,3,2.1c1.1-0.1,1.6-0.1,1.6-0.1s1.3,0.3,2.2-0.2 M59.7-23.9c0,0,4.4-2.2,4.5-3.7
			c0.2-1.6,0.2-1.7,0.5-1.8c0.3-0.1,0.2-0.5,0.7-0.6c0.5-0.1,0.5-0.2,0.5-0.2 M65.6-30c0,0,0.4,0.2,0.6-0.5s0.4-0.8,0.7-1.1
			s2.3-0.8,2.3-1.8c0-1.1-0.1-1.9,0.5-1.8c0.5,0.1,0.6,0.5,1-0.1c0.4-0.6,1.4-1.5,1.8-2.1s0.3-1.8,0.5-2.4c0.2-0.6,2.1-3.7,2.1-3.7"
			/>
		<path class="st2" d="M74.9-43.5c0.4-0.3,1.3-0.9,1.9-0.9c0.6,0,1.3,0.1,1.8-0.2c0.6-0.3,0.5-0.4,1.1-0.4s0.3-0.1,0.7-0.2
			c0.4-0.2,0.5-0.4,1,0c0.5,0.5,0.6,2,1.7,2c1.1,0,1-0.1,1-0.1"/>
		<path class="st2" d="M-76.3-59.9c0.8,0.1,1.2,0.5,2,1.1c0.9,0.7,0.9,0.8,1.6,1.1c0.6,0.3,2,2,2.4,2.6c0.5,0.5,1.6,3,2.3,3.2
			c0.7,0.2,1,0.2,1,0.4c0,0.1,0.3,0.2,0.5,0.2s0.6,0.1,0.8,0.4c0.1,0.3,0.3,0.4,0.7,0.6c0.4,0.2,0.6,0.4,0.7,0.7
			c0.1,0.3,0.4,1.4,1,1.5c0.6,0.2,0.5,0.3,0.8,0.8"/>
		<path class="st2" d="M-92.4-57.8c1-0.3,2.5-0.4,3,0.2c0.5,0.5,1.3,1.4,2.1,1.1c0.8-0.3,0.4-0.4,0.9-0.5c0.5-0.1,0.5-0.1,1.1,0
			c0.5,0.1,2.9,0.5,3.5-0.1c0.5-0.7,1.4-1.7,2-1.7c0.7,0,1.2,0.1,1.4-0.3c0.2-0.4,1.4-0.6,2.1-0.6"/>
		<path class="st2" d="M-99.2-58c0.4-0.5,0.5-0.9,0.5-1.2c0-0.3,0.2-0.6,0.9-0.4c0.6,0.2,1.4,0.5,2.2,0.6c0.8,0.1,1.4,0.5,1.7,0.9
			c0.3,0.4,0.6,0.5,1.6,0.3"/>
		<path class="st2" d="M-99.9-53.6c0,0,0.4-3.9,0.7-4.4"/>
		<path class="st2" d="M-42.9-1c-0.2,0.7-0.5,2.5-0.6,3c0,0.5,0,1.4,0.1,1.8c0.2,0.5,0.3,0.8,0,1.1c-0.3,0.3-0.8,0.8-0.3,1
			c0.5,0.2,0.9-0.1,1.2,0.2c0.4,0.3,1.6,0.7,2.5,0c0.9-0.7,0.7-1,1.8-1c1.1,0.1,1.3-0.1,1.5-0.6c0.2-0.5-0.2-1.7,1.4-1.1
			c1.7,0.6,1.2,0,1.2,0 M-51.2-13.5c0.1,0.7,0.2,2.1,0.3,2.7c0.1,0.5,0.1,0.8,0.4,1.2c0.3,0.4,0.5,0.9,0.6,1.4
			c0.1,0.4,0.7,4,1.1,4.7c0.4,0.7,0.3,1.1,0.7,1.4c0.4,0.4,0.9,1.1,1.2,1.7c0.3,0.6,0.6,1.5,1,0.5c0.4-1,0.3-1.5,0.7-1.7
			c0.4-0.2,0.6-1.4,0.7-1.9c0.1-0.5,0.6-2,1-1.5c0.4,0.5,0.3,0.4,0.3,0.9c0,0.5,0,0.6,0.2,1s0.1,1.5,0,2.2"/>
		<path class="st2" d="M-52.1-33.3c0.2,0.3,0.3,1.1,0.1,1.2c-0.3,0.1-0.4-0.1-0.8-0.3c-0.5-0.1-0.5-0.2-0.7,0.2
			c-0.1,0.4,0.2,0.6,0.3,1c0.1,0.4,0.5,0.9,0.6,1.3c0.1,0.4,0.5,1.1,0.6,1.4c0.1,0.3,0.2,1.6,0.3,2c0.1,0.4,0.5,3.8,0.3,4.4
			c-0.2,0.6-0.3,1.6-0.2,2.2c0.1,0.6,0.1,1.5,0.2,2c0.1,0.5,0.2,3.9,0.3,4.6"/>
		<path class="st2" d="M-62.7-47.4c0.3,0.5,1.7,2.4,1.9,2.9c0.2,0.4,0.4,1.7,1.7,2.3c1.3,0.6,3.2,1.7,3.3,2c0.1,0.3,0.5,1.5,0.9,1.8
			c0.3,0.3,0.5,0.8,0.5,1.3c0,0.4,0.5,1.9,1.1,2.5c0.5,0.6,1.1,1.1,1.3,1.4"/>
		<path class="st2" d="M-33.4,4.4c0,0,0.2,1.4-0.2,2c-0.4,0.6-0.5,1.1-0.1,1.5c0.5,0.4,0.8,0.5,1.4-0.3c0.6-0.7,1.4-2,2.5-2.1
			c1.1-0.1,1.2-0.2,1.1,0.2c0,0.5,0.2,0.9,0.7,0.5c0.5-0.4,0.5-0.8,1.1-0.7c0.5,0.1,1,0.1,1-0.3c0-0.4-0.1-0.6,0.1-0.8
			c0.2-0.2,0.2-0.3,0-0.8c-0.2-0.5-0.3-0.8-0.4-1.3c-0.1-0.5-0.3-1-0.2-1.7c0.1-0.7-0.1-1.9-0.1-2.3c-0.1-0.4,0-0.4,0.5-0.6
			c0.5-0.2,1.5-0.7,1.9-1.1c0.4-0.4,1-1.5,1.4-2c0.5-0.4,0.9-0.5,0.5-1.1c-0.4-0.6-0.9-1.6-0.1-1.9c0.8-0.3,0.6-0.3,1-0.3
			c0.4,0.1,1-0.1,1.1-0.5c0.1-0.5,0.1-2,0.6-2c0.5-0.1,2.9,0,3.5-0.2c0.6-0.2,1.7-0.9,1.7-0.9"/>
		<path class="st3" d="M97.5-105.7c0.4-1.2,1.1-2.9,1.6-3.6c0.5-0.7,0.8-1.3,1.2-1.4c0.3-0.1,0.6-0.1,0.3-0.4
			c-0.3-0.3,0.8-0.8,1.1-1.1c0.3-0.3,0.2-0.2,0.5-0.3c0.3-0.1,0.5-0.3,0.5-0.5c0-0.3,0.1-0.6,0.6-0.6c0.5,0,0.7-0.2,0.6-0.7
			c-0.1-0.5,0.6-0.7,1.2-1c0.6-0.3,0.8-1.5,1.4-2.5c0.5-1,0.7-1.7,0.9-2.5c0.2-0.8,0.3-2,1-2.4c0.7-0.5,0.9-0.6,1.6,0.5
			c0.7,1.1,0.5,0.2,1.3,0.7c0.8,0.5,0.9-0.6,1.6-0.2c0.7,0.5,1.2,0.4,1.6,0c0.5-0.4,0.6-0.3,1.2-0.2c0.5,0.1,0.6,0.1,0.9-0.5
			c0.3-0.6,0.1-1.6-0.5-1.7c-0.5-0.1,0.4,0-0.6-0.9c-1-0.8,0.2-1.8,0.3-1.6c0.1,0.2,0.7-0.4,1.8-0.5c1.1-0.1,1.8-0.9,2.3-1.4
			c0.5-0.5,0.3-1.1,0.4-1.8c0.1-0.5,0.1-0.8,0.4-1c0.1-0.1,0.3,0,0.7,0c1.3-0.1,1.3-1.1,1-2.5c-0.2-1.4,0.2-1.1,0.1-1.7
			c-0.2-0.6-0.2-0.4,0.1-0.4c0.3,0,0.6,0.3,0.8,0.1c0.2-0.1,0.4-0.5,0.5,0.2c0,0.1,0.1,0.2,0.2,0.2c0.4,0.1,0.8-0.2,1,0.5
			c0.1,0.5,0.4,0.9,0.8,1.1c0.1,0.1,0.2,0.3,0.4,0.3c0.1,0,0.1-0.2,0.3-0.2c0.1,0,0.3,0.2,0.4,0.3c0.4,0.8,0.9,0.1,0.5-0.2
			c-0.4-0.3-1.9-1.4-0.4-2.1c1.5-0.6,1.8-1.8,1.9-2.7c0.1-0.9,0.2-2.3-0.4-2.8c-0.5-0.4-0.7-1.4-0.7-1.7c0-0.3,0-1.9-0.4-2.7
			c-0.4-0.8,0.1-1.7-2.1-3.7c-2.2-2-0.2-2.3,0.3-2.5c0.5-0.2,0.9-1.4,1.6-2.7c0.7-1.3,1.8-0.6,2.7-0.5c0.9,0.1,2.1,0.4,2.4,0.4
			c0.3,0,1.3,0.2,1.5,0c0.4-0.3,0.6-0.3,0.4-2c-0.2-1.7,0.2-2.1,0.5-2.6c0.4-0.6-0.1-1.1-0.2-1.5c-0.1-0.4,0.1-0.9,0.5-1.2
			c0.3-0.4,0.2-1.3,0.1-1.6c-0.2-0.3,0-0.5,0.1-0.8c0.2-0.3,0.4-0.7,0.3-0.9c-0.2-0.1-0.2-0.3-0.1-0.6c0.1-0.4,0-0.3-0.4-0.5
			c-0.3-0.2-0.5-0.9,0-1.3c0.5-0.4,0-0.7-0.2-1.3c-0.2-0.5-0.1-2,0.1-2.3 M-147.9-133.6c-0.1,0.4-0.1,1-0.1,1.7
			c-0.1,1.9-0.4,3.2-1,3.2c-0.5,0-2.8,0.1-3.1,0.2c-0.3,0.1-2,0.3-3.1,0.5c-1.1,0.2-5.6,0.5-5.7,0.5c-0.1,0-0.9,1-1.3,1.2
			c-0.5,0.2-1.1-0.9-1.5-0.5c-0.4,0.3-0.7,0.8-1.2,1c-0.6,0.2-0.9-0.2-1.1-0.3c-0.3-0.1-0.3,0-1.3-0.4c-1-0.4-1.3-1.1-2.4-0.4
			c-1.1,0.7-1.3,1.2-1.5,1.7c-0.2,0.5-1.9,2.4-2.2,1.8c-0.3-0.6-1-0.5-1.9-0.5c-0.9,0-2.4,0-2.1-0.6c0.3-0.6,0.5-1.9,0-1.9
			c-0.6-0.1-2.6,0.6-3,0.1c-0.4-0.5-0.7-0.8-0.9-0.5c-0.2,0.3,0.2,1.2-0.4,1c-0.6-0.2-0.8,0-1.3,0.2c-0.5,0.2-1.7,0.8-2.4,0.5
			c-0.7-0.3-1.1-0.6-1.5-0.2c-0.3,0.2-0.6,0.6-0.8,0.9c-0.5,0.4-0.3,1-0.7,1.7c-0.3,0.7-0.3,1.1-1.8,1c-1.5-0.1-1.3,0.8-1.3,0.8
			s1,2.7,0.6,2.9c-0.4,0.2-1.3,1-1.1,1.6 M134.6-171.1c0.2-0.4,0.1-0.5-0.1-0.8c-0.2-0.2-0.3-0.6-0.3-1c0-0.3,0.3-0.8,0.7-1.2
			c0.5-0.4,0.7-1.6,1-2.1c0.2-0.5-0.7-1.1-1.2-1.6c-0.5-0.5-0.7-0.9-0.4-1.2c0.3-0.2,0.1-0.7,0-1.1c-0.1-0.3,0.6-0.8,1.1-1.2
			c0.2-0.3,0.5-0.6,0.5-0.7c0.1-0.1,0-0.2-0.1-0.4c-0.1-0.1-0.5-0.3-0.7,0.2c-0.2,0.5-1.1,1-1.6,1c-0.5,0.1-1.1,0.1-1.4,0.4
			c-0.2,0.3-0.4,0.6-0.9,0.8c-0.5,0.2-0.6,0.5-0.9,0.7c-0.3,0.3-1.1,1.1-1.4,1.6c-0.4,0.4-0.3,0.6-0.9,0.6c-0.5,0-1.5,0.2-1.6,0.8
			c-0.2,0.5-0.3,0.9-0.7,1.1c-0.4,0.3-0.3,0.3-0.4,0.7c0,0.4-0.4,1.7-0.7,1.6c-0.4-0.1-1.1-0.1-1.5,0.5c-0.4,0.7-0.4,0.7-1.1,0.7
			c-0.7,0-0.5,0.1-0.9,0.2c-0.4,0.2-0.4,0.2-0.6,0c-0.3-0.2-0.5-0.3-1,0c-0.5,0.4-1.4,1.2-2.1,0.7c-0.7-0.5-2.2-1.8-2.2-2.5
			c0.1-0.7,0.1-1.5-0.2-1.7c-0.3-0.2-0.4-0.5-0.4-0.8c0-0.2-0.4-0.5-0.8-0.6c-0.4-0.1-0.7-0.4-0.7-1c0-0.5,0.2-1.5-1-1.1
			c-1.1,0.4-1.7,0.4-1.9-0.1c-0.2-0.5-0.5-1.4-1-1.4s-0.5-0.3-0.7-0.5c-0.2-0.1-0.5-0.2-0.8-0.2c-0.3,0-0.4-0.4-0.5-0.6
			c-0.2-0.3-0.5-0.4-0.7,0c-0.2,0.3-0.1,0.5-0.5,0.5c-0.5,0-0.4,0-0.6,0.1s-0.3,0.1-0.5,0c-0.1-0.2-0.2-0.4-0.8-0.3
			c-0.6,0-0.8,0.2-0.9-0.1c0-0.3-0.4-0.5-0.8-0.3c-0.4,0.2-1.7,1-2.4,0.9c-0.7-0.1-0.8-0.1-1.1,0c-0.3,0.1-0.7-0.2-0.9-0.3
			c-0.2-0.1-1.7-1.5-1.7-1.8c0-0.3,0.4-2.3-0.3-2.2c-0.7,0-1.1-0.1-1.2-0.4c-0.1-0.3-0.2-1-0.4-1.3c-0.2-0.3-0.4-0.8-0.4-1.1
			c0-0.3-0.9-0.9-1.1-1.1c-0.3-0.2-2.1-1.6-2-2.1c0.1-0.5,0.2-1.1-0.2-0.8c-0.4,0.3-0.6,0.3-0.5,0c0.2-0.3,0.4-0.6,0.1-0.6
			c-0.3,0-0.5-0.3-0.5-0.5c0.1-0.3-0.1-0.4-0.3-0.4c-0.2-0.1-0.6-0.5-0.3-0.8c0.3-0.3-0.4-0.6-0.7-0.8c-0.4-0.1-1.6-1.3-1.4-1.7
			s0-0.6-0.3-0.7c-0.3-0.1-0.7-0.2-0.4-0.5c0.3-0.3,0.1-0.4-0.1-0.6c-0.2-0.2-1.2-1.4-1.7-1.4c-0.5,0-1.2-0.2-0.8-0.6
			c0.4-0.5,0.5-1,0-1c-0.5,0-0.6,0-0.8-0.3c-0.2-0.2-0.3-0.3-0.4-0.1c-0.1,0.1-0.5,0.3-0.5-0.2c0-0.5-0.3-0.8-0.6-0.8
			c-0.3,0-0.7-0.2-0.9-0.4c-0.1-0.2-1.5-0.2-1.8-0.2c-0.3,0-0.8,0.2-0.8,0.4c0,0.2,0,0.4-0.6,0.3c-0.6-0.1-1.7-0.2-1.8-0.5
			c-0.1-0.3-0.4-0.5-0.8-0.5c-0.4,0-0.6,0-0.8-0.3c-0.2-0.3-1-0.4-1.4-0.2c-0.5,0.2-1,0.2-1.1,0c0-0.2-0.1-0.3-0.9-0.1
			c-0.8,0.2-2.1,0.4-2.4,0.7c-0.3,0.2-1.4,0.6-2,0.6c-0.6,0-0.9,0.3-1.4,0.5c-0.5,0.2-1.8,1.3-2.2,1.3c-0.3,0-0.8,0.2-1,0.4
			c-0.3,0.3-0.8,0.3-0.9,0.2s-0.6,0-0.8,0.2c-0.2,0.2-1.4,2.4-1.6,2.7c-0.2,0.4-0.3,0.9-0.6,1.1c-0.3,0.3-0.7,0.6-0.6,0.9
			c0.1,0.4-0.1,1.4,0.3,1.2c0.4-0.2,1.1-0.7,1.5-0.6c0.5,0.1,1.6,0,1.3,0.6c-0.2,0.6-1,1-0.3,1.1c0.7,0.2,1.1,0.7,1,1.6
			c-0.2,0.9-0.8,2.2-1.3,2.6c-0.4,0.4-1.3,1.7-1.5,2.1c-0.2,0.4-0.4,1.1-0.5,1.4c-0.2,0.3-0.1,0.7,0,1.1c0.1,0.4,0,1.5-0.3,1.9
			c-0.3,0.4-0.6,0.8-0.5,1.3c0.1,0.4,0,1-0.2,1.3c-0.2,0.3-0.4,1.3-0.4,1.6c0,0.3-0.4,0.8,0.2,1c0.6,0.2,0.5,0.6,0.5,1.2
			c0,0.6-0.8,1.5-1.4,1.6c-0.6,0.1-1,0.4-1.3,0.6c-0.3,0.2-2,2-2.2,2.3c-0.1,0.2-0.3,0.3-0.7,0.7c-0.4,0.2-0.8,0.3-1,0.4
			c-0.9,0.4-2.8-0.2-4.6-0.8c-1.7-0.6-1.7,0.9-1.7,0.9s-1.9,6.1-2,7c-0.1,0.9-0.6,2-0.5,2.9c0.1,0.9-1,1.2-1.3,1.8
			c-0.2,0.6,0.3,1.2,1.5,2.4c0.9,1,1.3,0.1,2.1-0.4c0.2-0.1,0.6,0.2,0.9,0.1c1.5-0.5,2.8-0.7,4.6,0.3c1.7,0.9,1.9-0.9,2.5-1.7
			c0.6-0.9,0.9-0.9,1.9-1.3c1-0.4,1.8,0.4,1.8,0.4s1.5,1.6,2.3,1.6c0.8,0,1.1,1,1.3,1.3c0.2,0.3,1.1,0.3,1.6,0.4
			c0.3,0.1,0.9,0.4,1.4,0.9c0.5,0.5,0.8,1.3,0.8,1.4c0.1,0.3,0,0.1,0.4,0.4c0.4,0.3-0.1,2-0.4,2.4c-0.3,0.3,0,0.6-1,0.6
			c-0.9,0.1-1.8,0-2.2-0.1c-0.4-0.1-1.3-0.3-1.5-0.2c-0.2,0.2-0.5,0.4-1.5,0.5c-1,0.1-2.5,0.6-2.8,1.1c-0.3,0.5-0.9,0.6-1.4,0.4
			c-0.5-0.1-1,0-1,0.6c0,0.6,0.1,1.1-0.7,1.3c-0.8,0.2-1.9-0.1-2.2,0.5c-0.3,0.5-2.1,2-2.2,3c-0.1,1.1-0.1,1.3-0.6,1.9
			c-0.5,0.6-1.7,1.8-2.3,2.1s-3.4,1.3-4.3,0.8c-0.9-0.5-1.6,0.4-1.7,0.8c-0.1,0.4-1.8,3-2.4,3.3c-0.5,0.3-1.9,1.3-2.7,1.3
			c-0.9,0-4.6-0.3-5.2-0.7c-0.6-0.4-0.8-0.7-1.6-0.7c-0.8,0-1.7-0.3-2.1,0.9c-0.4,1.1-1.4,3.4-1.4,3.6c0,0.2-0.2,2.4,1.1,3
			c1.3,0.6,2.2,1.5,1.8,2.2c-0.3,0.7-1.5,2.5-2.4,2.5c-0.9,0-2.7,1.4-3,1.8c-0.3,0.5-1.4,2.9-2.5,3.7c-1.1,0.7-2.8,1.2-3,1.4
			c-0.3,0.2-1.2,0.6-1.4,1c-0.2,0.3-4.3,0.6-5.4,0.7c-1.1,0.1-4.9,0.2-5.6,0.2c-0.7,0-1.5-0.2-1.7,0c-0.2,0.2-0.5,0.4-1.3,0.7
			c-0.9,0.3-9,3.1-10.3,4.2c-1.3,1.1-1.4,0.8-1.8,0.7c-0.5-0.1-2.2-0.1-2.2-0.5c0-0.5,0-1.1-0.7-1c-0.7,0.1-2.2,0.7-4.2,0
			c-2-0.7-4.1-2.2-4.8-2.3c-0.7-0.1-3.4-0.2-3.7-0.6c-0.3-0.3-1.4-2-2-2.1c-0.6-0.1-7.2-2.4-7.8-2c-0.6,0.4-0.9,0.4-1.7,0.5
			c-0.8,0.1-2.4,0.4-3.1,0.4c-0.7,0-7.9-1.5-9.1-1.8c-1.2-0.3-1.9-0.7-4.2-0.7c-2.3,0-1.8-0.2-2.7-0.2c-0.9,0-1-0.1-1.2-0.6
			c-0.2-0.6-0.5-1.4-1.2-2c-0.7-0.6-0.7-1.1-1-2.1c-0.2-0.9-1.2-4.6-1.6-4.9c-0.4-0.3-1.1-0.8-0.9-1.3c0.3-0.5,0.4-1.2-0.4-1.1
			c-0.8,0.1-2.5-0.4-2.9-1c-0.4-0.6-1.5-1.9-2.1-2.3c-0.6-0.4-4.1-3.3-5.3-3.4c-1.2-0.1-3.2,0.2-3.4-0.4c-0.2-0.5-0.8-0.5-1-0.5
			c-0.2,0-3-0.3-3.3-0.7c-0.3-0.3-0.4-0.5-1.1-0.4c-0.7,0-0.6,0-0.9-0.3c-0.1-0.1-0.3-0.2-0.5-0.2c-0.2,0-1,0.1-1.1,0
			c-0.2-0.2-0.1-0.6-0.5-1.2c-0.4-0.6-0.7-1.3-0.5-1.8c0.2-1.1,0.7-1.8,1.4-2.5c0.7-0.7,0.9-1,0.8-1.9c-0.1-0.9-0.3-1.5,0.3-2.1
			s0.5-2.2,0.3-2.8c-0.2-0.7-1.6-3.2-1.6-3.7c0-0.5-0.1-2.5-0.5-2.9c-0.4-0.4-0.8-0.9-0.8-1.3c0-0.4-0.5-0.6-0.7-0.3
			c-0.2,0.3-0.9,0.6-1.2-0.4c-0.3-1-0.8-1.1-1.3-1.1c-0.5-0.1-1.5-0.3-1.9-0.6c-0.3-0.3-2.1-1.3-2.1-2.1c0.1-0.9-0.1-0.8-0.2-1
			c-0.2-0.2-2.6-1.5-2-2c0.6-0.5,0.4-1.2-0.2-1.6c-0.5-0.4-0.5-0.9-0.1-1.3c0.4-0.4,0.5-1,0.1-1.3c-0.4-0.3-1.3,0-1.6-0.1
			s-0.8-0.1-1.2-0.3c-0.4-0.2-2.5-0.8-2.6,0.4c-0.1,1.2,0.5,1.3,0.1,1.8c-0.5,0.5-1.5,1.4-2.6,1.5c-1.1,0.1-1.8,0.2-2.3,0.1
			c-0.5-0.1-2.4,0.6-2.6,2.1c-0.3,1.5-0.4,4.1-0.6,4.9c-0.2,0.8-0.7,2.7-2.5,2.6c-0.3,0-1.1,1.4-1.6,1.3c-0.2,0-1.2-1.5-1.3-1.5
			c-0.4-0.1-1.5-0.4-2-0.4c-0.6-0.1-2.7-0.9-3.4-1.6c-0.7-0.7-2.3-2.2-2.9-0.9c-0.6,1.3-3.9,6.3-4.3,7c-0.4,0.6-2,2.7-1.8,3.1
			c0.2,0.4,1.6,3,0.2,2.5c-1.4-0.5-2.4-0.7-2.7-1.1c-0.3-0.4-0.8-0.9-1.5-0.8c-0.7,0.1-2.5,0.4-3.1,0.3c-0.6-0.2-1.1-0.4-1.3-0.2
			c-0.2,0.2-1.8,0.3-2.8,0.4c-1,0-2.7,0.3-2.6,1c0.1,0.7-0.1,0.6,0.8,0.8c0.9,0.2,1.2,0.7,1,1.7c-0.2,1-0.6,1.9-0.6,3.6
			c-0.1,1.7-0.1,5.1-0.1,5.6c0,0.5,0,1.3-0.7,1.7c-0.5,0.2-0.7,0.5-0.8,0.8c-0.1,0.3,0.2,0.6-0.4,0.7s-0.9,0.1-1.4,0
			c-0.5-0.1-0.7-0.3-0.9,0.6"/>
		<path class="st4" d="M-191.8-115.5c0.1,0.2,0.3,0.4,0.4,0.5c0.2,0.3,0.7,0.5,1.6,0.3s1.2-0.3,1.7,0.2c0.5,0.5,0.6,0.8,1,1.2
			c0.4,0.3,0.4,0.6,0.1,1.1c-0.3,0.5-0.7,0.9-0.7,1.6c0,0.7-0.1,0.9,0.2,1.2c0.2,0.3,0.5,0.8,0.3,1.5c-0.2,0.7,0,0.6-0.6,0.8
			c-0.4,0.1-0.8,0.2-0.7,0.7c0,0.8,0,0.9,0.3,1c0.3,0.1,0.8,0.3,0.8,0.7s-0.2,0.8-0.5,0.9c-0.3,0.1-0.9,0.2-0.9,0.2"/>
		<path class="st5" d="M8.5,40.9c-1.1-0.8-2.4-0.5-3.7-0.6c-1.3-0.1-3.1-1.3-3.2-1.5c-0.1-0.2-0.8-1.2-1.8-1.2c-1,0-1.5-0.1-1.9-1.8
			c-0.4-1.6,0.3-2.2,0.7-2.8c0.4-0.6,0.4-2-0.9-1.8c-1.3,0.2-0.6-0.3-3-0.3c-2.4,0-3.8-1.8-4.5-2.5c-0.7-0.7-2.5,0.7-3.7,1.2
			c-1.3,0.4,0.1,1.6-0.8,2c-1,0.3-2.9,1-3.1,1.1c-0.2,0-1.3-1.4-1.3,0.1c0,1.5-0.8,1.5-0.8,1.5s-1.1-1-1.7-1.8
			c-0.6-0.8-0.8-0.7-1.1-0.2c-0.3,0.6-0.3,0.5-0.6,0.6c-0.2,0.1-0.3-0.1-0.7-0.7c-0.4-0.6-1.6,0.9-2.6,1.7c-1,0.8-2.2-0.6-2.9-0.9
			c-0.7-0.3-1.1,0.5-1.6,1c-0.6,0.5-1,0.5-2.6,0.5c-1.6,0-1.5-0.1-1.9-0.2c-0.4-0.2-0.9,0.2-1.2,0.9c-0.3,0.7,0.1,1.8,0.3,2
			c0.2,0.2,1,2.1,1,2.7c0.1,0.6-0.1,0.7-0.2,1.3c-0.1,0.6,0.3,1.4,0.5,1.9c0.2,0.5-1.1,0.6-1.5,0.3c-0.4-0.3-1.6-0.2-2.2-0.1
			c-0.6,0.1-0.7-1.2-0.6-1.9c0.1-0.7,0.1-1.9-0.1-2.3c-0.2-0.4-2.5,0.9-2.9,1.5c-0.4,0.6-1.8,0.4-2.2,0.2c-0.5-0.2-0.5-0.2-1.1-0.1
			c-0.6,0.1-0.7-0.4-1.5-1.1c-0.7-0.7-1-1.8-1.1-2.4c-0.1-0.6-3.4-0.9-4.7-1C-54,36-52,32.7-52.1,32c-0.1-0.6,0.2-1.5,1-1.7
			c0.8-0.2,0.7-0.2,0.6-0.9c-0.1-0.7-0.6-0.7-1.3-0.6c-0.7,0.1-1.4,0.1-2.1-0.2c-0.7-0.2-0.7-0.9-0.7-1.4c0-0.5-0.9-3.1-1-3.3
			c-0.2-0.2-0.5-0.2-0.6-0.8c-0.1-0.6,0.2-0.6,0.8-1.4c0.6-0.7-0.7-0.5-1.2-0.6c-0.5-0.1-2.7-0.1-3.7-0.1c-1.1,0-2,0.9-2.9,1
			c-0.9,0.1,0.6-2.1,0.7-2.4c0.1-0.3-0.3-1.2-0.7-1.6c-0.4-0.4,0.1-2.3,0.2-2.4c0.2-0.1,0.9-0.7,0.6-1.2c-0.2-0.5,0.1-0.9,0.2-1.4
			c0.1-0.5,0.4-0.7,1-0.5c0.6,0.2,0.7-0.2,1.6-0.9c0.9-0.7,0.3-1.1,0.2-1.8c-0.1-0.7,0.8-0.1,1.1,0.3c0.3,0.3,0.9,0,1.2-0.9
			c0.3-1,0.7-0.7,1.4-0.6c0.7,0.1,0-1.1-0.3-1.6c-0.3-0.4,0.3-1.1,0.7-0.9c0.4,0.3,0.2-1.5,0.3-1.7c0.1-0.2,0.4-1.8,0.4-2.3
			c0-0.5-0.1-2.1-0.2-2.9c-0.1-0.7,0-2.6,0.1-3.2c0-0.6-0.3-1.2-0.5-1.2c-0.2,0-0.2-0.2-0.7-0.6c-0.5-0.4-0.7-0.1-1.3,0.7
			c-0.5,0.9-1-1.4-1-3c0-1.5-1-1.9-1.9-2.7c-0.9-0.8-0.4-0.2-0.9-0.6c-0.5-0.4-1.3-0.3-1.3,0c0,0.2-0.1,0.8-0.8,1
			c-0.7,0.2-0.3,1.8-0.3,2.5c0,0.6-1,0.3-1.7,0.8c-0.7,0.5-3.2-2.5-3.6-2.9c-0.4-0.4-2.4-0.9-2.9-0.9c-0.5,0-0.8-0.2-1.3-0.6
			c-0.5-0.4-2,0-2.7,0.3c-0.7,0.3-1.1,1-1.7,1.7c-0.6,0.7-5.2,2.1-6.2,2.2c-1,0.1-2.7,1.8-3.4,3.1s-3.7,1.2-4.6,1.2
			c-0.9-0.1-3.5-0.5-5.5-0.6c-2-0.1-1.6-1.5-1.6-3s-1.2-1.4-2.2-1.6c-1-0.2-1.1-3.1-1.1-3.3c0-0.2-0.1-0.9-0.7-1.4
			c-0.6-0.5-1.8-0.4-2.3,0.2c-0.5,0.6-1.3-0.2-1.5-0.5c-0.2-0.3-2.5-1.3-3.3-1.7c-0.7-0.4-0.8-0.5-2.2-1c-1.4-0.5-3.9,2.1-4.5,2.6
			c-0.6,0.5-1.8,2.3-1.6,2.7c0.2,0.3,0.1,0.9-0.7,0.9s-1-0.9-1.2-1.6c-0.2-0.7,0.7-2.3,0.8-3.4c0-1.2-0.8-1.4-1.8-1.1
			c-1,0.3-3.8,0.5-4.1,0.3c-0.3-0.2-0.8-0.1-1,0.3c-0.1,0.3-3.6-0.6-3.7-0.6c-0.3-0.1-0.6,0-0.7,0c-0.4-0.1-2.1-1.8-3-2.1
			c-0.9-0.3-1-0.3-1.2,0.1c-0.2,0.4-0.3,0.4-1,0.3c-0.7-0.1-0.6-0.7-0.7-1.3c-0.1-0.6-0.6,0-0.9,0.6c-0.3,0.6-0.7,0.1-0.8-0.4
			c-0.1-0.5-0.7-1.8-1.1-2.4c-0.4-0.6-0.6-0.2-1.2-0.2c-0.6,0-2-0.6-2.5-0.8c-0.5-0.2-0.1-0.7,0.1-1.4c0.2-0.8-0.4-0.9-1-0.6
			c-0.7,0.3-3.7-3.4-4.1-3.5c-0.4-0.1-0.5-1.3-0.5-2.1c0-0.7,0-0.7-1-1.1c-0.9-0.4-1.3-0.2-2.1,0.2c-0.7,0.4-1.4-1.1-1.5-1.8
			c-0.2-0.7-0.6-1.5-1.5-2.1c-0.9-0.6-1.5-1.7-1.7-2c-0.2-0.3-2-2-2.6-2.2c-0.6-0.2-1.1-1.9-1.2-2.4c-0.1-0.4-1.1-0.7-2-1
			c-0.9-0.3-2,0-2.1,0.5c-0.1,0.8-0.6-0.1-0.9,1c-0.1,0.3-0.8,0.3-1,0.1c-0.1-0.2-0.5-1-0.7-1.2c-0.2-0.2-4.3-4.7-5-5.2
			c-0.7-0.5-0.9-1.9-1.3-2.2c-0.2-0.2-0.6,0.1-1-0.2c-0.4-0.2-0.8-0.9-1.2-1c-0.7-0.1-1.7,0.1-2.1-0.4c-0.3-0.3-1.1-2.3-1.2-3.5
			c-0.1-0.6,0.4-1,0.4-1c0,0,0.4-0.1,0.4-0.3c0-0.2-0.3-0.5-0.3-0.7c0-0.3,0-0.6,0-0.9c0-0.3,0-0.5,0.2-0.5c0.4-0.2,0.2-0.4-0.2-0.9
			c-0.3-0.3-0.6-1.1-0.7-1.5c0-0.2,0-0.3,0-0.4c0.1-0.1,0.1-0.2,0.1-0.4c0-0.3,0-0.7,0-1.1c0-0.3-0.1-1,0.2-1.3
			c0.2-0.2,0.5-0.2,1.1-0.4c0.5-0.2,1.2-0.4,1.3-0.1c0.1,0.2-0.3,0.9-0.4,1.2c-0.1,0.7,0.8,1.4,1.2,1.6c0.4,0.2,0.7,0.1,0.9-0.2
			c0.1-0.3,0.3-0.5,1-0.6c0.7-0.2,0.3-1.9,0.3-2.5c0-0.3-0.3-1-0.3-1.6c0-0.2,0.2-0.5,0.1-0.7c0-0.2-0.1-0.4-0.1-0.5
			c-0.1-0.3-0.8-1.5-0.9-2.1c-0.1-0.7-0.3-1.5,0.2-2c0.5-0.4-0.1-2-0.2-2.3c-0.1-0.3,0-0.6,0.8-0.6c0.8,0,1.1-0.5,1.5-0.9
			c0.3-0.3,0.5-0.9,0-1c-0.5-0.1-0.5-0.2-0.7-0.6c-0.1-0.4-1-1.1-1.9-1.5c-0.9-0.5-0.7-1.4-0.5-1.9c0.2-0.5-0.1-2.1-0.3-2.8
			c-0.2-0.7,0-1.6,0.5-2.2c0.6-0.6,0.1-0.6-0.5-0.7c-0.6-0.1-2.5-1-3.9-1.5c-1.4-0.6-3.1-2.7-3.1-3.4c-0.1-0.8-0.1-0.6-0.6-0.4
			c-0.5,0.2-1.4-0.1-1.5-0.3s-0.2-1-0.8-1.5c-0.6-0.5,0.3-1.5,0.4-2.9c0.1-1.4-1.8-2.8-2.1-2.7c-0.3,0-0.6-0.7-0.6-1.3
			c0-0.6-2.1-1.7-3.1-2.2c-1-0.5-1-1.7-0.6-1.8c0.3-0.2,0.4-0.1,0.8-0.1c0.4,0,0.9,0.1,0.9,0.1 M22.4,89.6c-0.5-5.8-4.4-8.5-4.4-8.5
			 M24.9,118.3c2.8-5,1.2-9.5,1.2-9.5 M48.9,172.8c-2.1,1.5-6.9,2.9-9,3.4 M65.9,147.7l6.4-7.7 M88.2,116.8c2.9-4.9,3.1-9.5,3.1-9.5
			 M89.3,76.9c0,0,0,8.3,0.2,9.8 M93.7,54.1c0,0-2.5,3.7-2.8,9.3 M104.8,32.2l-5.2,8.3 M108.7,8.8c-0.4,2.9,0,3.5-0.7,8.5
			 M11.7,148.2c0,0-1,5,1.1,9.9"/>
		<polygon class="st6" points="52.1,-101.1 52.6,-99.5 54.2,-99.4 53,-98.4 53.4,-96.8 52.1,-97.8 50.8,-96.8 51.2,-98.4 50,-99.4 
			51.6,-99.5 52.1,-101.1 		"/>
		<path class="st7" d="M37.9-96.9c0.7-0.1,1.3-0.3,1.6-0.4l0.1,0V-99h-0.8c-0.1,0-0.3,0-0.6,0c0-0.1,0-0.1,0-0.2c0,0,0-0.1,0-0.1
			c0,0,0-0.1,0-0.3c0.2,0,0.4,0,0.6,0h0.8v-0.6l0-0.5l0-0.6c0.2,0,0.3,0,0.3,0c0,0,0.1,0,0.3,0c0,0.3,0,0.5,0,0.7c0,0.2,0,0.3,0,0.5
			v3.1c0,0.3,0,0.5,0,0.6l0,0.4c-0.2,0-0.3,0-0.3,0c0,0-0.1,0-0.3,0c0-0.1,0-0.2,0-0.3c0-0.1,0-0.2,0-0.2v-0.4l-0.4,0.1
			c-0.4,0.1-0.8,0.3-1.1,0.4c-0.1-0.2-0.1-0.3-0.1-0.4L37.9-96.9L37.9-96.9z M40.9-101.2c0.2,0,0.3,0,0.3,0c0,0,0.1,0,0.3,0
			c0,0.2,0,0.4,0,0.6c0,0.1,0,0.3,0,0.5v1.1l0.2-0.1c0.4-0.2,0.8-0.5,1.1-0.7l0.1-0.1c0.1,0.2,0.2,0.4,0.4,0.6l-0.4,0.2l-0.6,0.3
			l-0.7,0.4v1.6c0,0.2,0,0.3,0.1,0.4c0,0,0.1,0.1,0.3,0.1h0.3c0.2,0,0.3,0,0.4,0c0.1,0,0.1-0.1,0.1-0.2c0-0.1,0.1-0.2,0.1-0.3l0-0.2
			l0-0.1c0.1,0.1,0.2,0.2,0.3,0.2c0.1,0.1,0.2,0.1,0.3,0.1l0,0.1c0,0,0,0.1-0.1,0.2c-0.1,0.1-0.1,0.2-0.1,0.3c0,0.1-0.1,0.1-0.2,0.2
			C42.9-96,42.8-96,42.6-96l-0.7,0c-0.2,0-0.3,0-0.5,0c-0.1,0-0.2-0.1-0.3-0.2C41-96.3,41-96.5,41-96.7v-3.5c0-0.2,0-0.3,0-0.5
			L40.9-101.2L40.9-101.2z"/>
		<path class="st7" d="M44-96.5l0.1-0.1c0.4-0.3,0.8-0.6,1.2-1l0.1-0.1c0.2,0.1,0.3,0.2,0.5,0.3l-0.2,0.1c-0.1,0-0.2,0.1-0.3,0.3
			c-0.2,0.2-0.3,0.3-0.5,0.5c-0.2,0.2-0.3,0.2-0.3,0.3l-0.1,0.1c-0.1-0.1-0.1-0.2-0.2-0.2L44-96.5L44-96.5z M44-100.7
			c0.4,0,0.7,0,0.8,0h1.7c0-0.1-0.1-0.2-0.1-0.2l-0.2-0.5c0.2,0,0.4,0,0.6-0.1l0.2,0.7h1.5c0.1,0,0.4,0,0.8,0c0,0.1,0,0.2,0,0.2
			c0,0,0,0.1,0,0.1c0,0,0,0.1,0,0.3c-0.4,0-0.7,0-0.8,0h-3.8c-0.1,0-0.4,0-0.8,0c0-0.1,0-0.1,0-0.2c0,0,0-0.1,0-0.1
			C44.1-100.5,44.1-100.6,44-100.7L44-100.7z M44.9-97.9c0-0.1,0-0.2,0-0.3c0-0.1,0-0.2,0-0.2v-0.8c0,0,0-0.1,0-0.3l0-0.2
			c0.3,0,0.5,0,0.7,0H48c0.2,0,0.4,0,0.6,0c0,0.1,0,0.2,0,0.3s0,0.1,0,0.2v0.8c0,0.1,0,0.2,0,0.3l0,0.2c-0.1,0-0.3,0-0.4,0
			c-0.1,0-0.2,0-0.3,0h-1v1.6c0,0.1,0,0.2,0,0.3c0,0.1-0.1,0.1-0.2,0.1c-0.1,0-0.3,0.1-0.7,0.1C46-96,46-96.1,46-96.1l-0.1-0.2
			l0.1,0c0.3,0,0.4,0,0.5-0.1c0-0.1,0.1-0.2,0.1-0.3V-98h-0.9C45.5-98,45.3-98,44.9-97.9L44.9-97.9z M45.4-98.4h2.7v-0.8h-2.7V-98.4
			L45.4-98.4z M47.6-97.3c0.2-0.1,0.3-0.2,0.4-0.3l1.3,1c-0.2,0.1-0.3,0.3-0.5,0.4l-0.1-0.1c-0.2-0.2-0.5-0.5-1-0.9L47.6-97.3
			L47.6-97.3z"/>
	</g>
	
		<use xlink:href="#SVGID_1_"  style="overflow:visible;fill-rule:evenodd;clip-rule:evenodd;fill:none;stroke:#1C96D5;stroke-miterlimit:10;"/>
</g>
</svg>
